<svg xmlns="http://www.w3.org/2000/svg" viewBox="0 0 1010 1009.994"><path d="M505.003 0C783.897 0 1010 226.084 1010 504.997c0 278.889-226.103 504.997-504.997 504.997C226.097 1009.994 0 783.885 0 504.997 0 226.084 226.097 0 505.003 0z" fill="#fc6220"/><path d="M318.925 544.814l-52.142-6.173c-3.692-.404-6.749-3.833-6.749-7.593V478.82c0-3.699 3.057-7.165 6.749-7.557l52.142-6.186a191.101 191.101 0 0 1 27.239-65.516l-32.574-41.326c-2.334-2.878-2.071-7.448.563-10.093l36.953-36.966c2.645-2.621 7.183-2.927 10.159-.563l41.272 32.507c19.664-12.776 41.785-22.17 65.535-27.155l6.148-52.202c.404-3.674 3.822-6.711 7.588-6.711h52.239c3.748 0 7.141 3.038 7.588 6.711l6.173 52.202c23.725 4.986 45.87 14.38 65.51 27.155l41.295-32.507c2.921-2.364 7.484-2.058 10.129.563l36.917 36.966c2.67 2.645 2.964 7.214.612 10.129l-32.532 41.289a191.827 191.827 0 0 1 27.185 65.516l52.141 6.186c3.742.391 6.749 3.858 6.78 7.557l-.03 52.227c.03 3.76-3.008 7.189-6.749 7.593l-52.141 6.173a191.893 191.893 0 0 1-27.198 65.554l32.544 41.302c2.352 2.902 2.058 7.446-.612 10.104l-36.917 36.941c-2.646 2.67-7.208 2.891-10.148.576l-41.277-32.531c-19.64 12.799-41.785 22.206-65.51 27.167l-6.173 52.13c-.447 3.748-3.84 6.76-7.588 6.785l-52.239-.025c-3.766.025-7.184-3.013-7.588-6.76l-6.148-52.13c-14.779-3.062-28.808-8.047-42.117-14.342l42.625-41.314a137.832 137.832 0 0 0 39.372 5.721c76.767 0 139.019-62.259 139.019-139.057 0-76.822-62.252-139.055-139.019-139.055-76.822 0-139.067 62.234-139.067 139.055 0 13.192 1.959 25.868 5.388 37.922l-42.22 40.946c-5.626-12.42-10.255-25.33-13.127-38.987z" fill="#fff"/><path d="M266.293 739.661c16.473 17.123 43.518 17.747 60.794 1.531l.448.477 143.912-139.533c34.859 12.359 75.811 4.703 104.901-23.284 29.016-27.865 38.423-68.235 27.675-103.474l-34.228 32.924c-7.906 7.582-20.504 7.361-28.116-.576l-33.083-34.406c-7.6-7.912-7.349-20.515.576-28.159l34.185-32.837c-34.742-12.151-75.492-4.312-104.454 23.517-28.851 27.717-38.228 67.782-27.742 102.837L266.924 678.541l.03.025c-16.774 16.719-17.135 43.947-.661 61.095zm14.263-29.873c5.64-5.438 14.599-5.268 20.031.342 5.421 5.67 5.249 14.686-.379 20.173-5.598 5.438-14.582 5.292-20.014-.355-5.443-5.659-5.278-14.685.362-20.16z" fill="#394145"/></svg>