<svg xmlns="http://www.w3.org/2000/svg" viewBox="0 0 1010 1009.995"><path d="M504.994 0C783.893 0 1010 226.102 1010 504.994c0 278.905-226.107 505.001-505.006 505.001S0 783.899 0 504.994C0 226.102 226.095 0 504.994 0z" fill="#09c"/><path d="M416.578 478.847l4.017-14.331 3.992 14.331h-8.009zm171.429-79.016h-7.655l1.838 1.85h7.667l-1.85-1.85zm-12.848 1.85v-2.793l-10.975-10.992-8.219 8.249-5.499 5.536H575.159zm40.604 0l2.744-2.732h11.525l-7.276-7.287h-10.913l-9.995 10.019h13.915zm-293.793 0h-9.787c23.995-83.995 101.136-145.537 192.853-145.537 91.655 0 168.797 61.542 192.779 145.537h-5.781c-9.774-33.047-27.927-62.517-52.167-85.728h-24.46l-1.188 6.106-5.512 3.645-11.563 1.212.588-7.324-10.363-1.813 1.838-7.325-15.899 3.675-8.5 14.65-14.722 11.005-1.128 13.976 14.613 3.662 8.549 3.686 4.274-4.274v-23.18h5.5v11.599h10.326v12.169h-9.714v8.525h-24.399v8.568h-8.022l-10.889-10.975v-7.331h-12.8v18.306l-3.405 3.331 6.407 6.424 7.973-7.937 6.039 6.087-3.356 3.381v4.587h-5.169v11.293h-61.083l-2.046 8.653-1.863-8.653h-28.722l6.186-6.125 2.768 2.738 6.675-6.694h-10.35v-5.506h7.325v-8.519h7.325v-20.743h-17.087v-3.693h-16.512v29.916l-6.063 1.819-4.923-11.599-14.588-10.325-8.55-11.587 14.626 1.776 4.912-7.888-4.3-4.93-1.825-6.106 18.336-1.176 2.376-12.836-61.094-.563c-19.402 19.517-34.627 43.151-44.438 69.43v12.611zm162.341-56.428l9.751 9.762 11.587-11.593 22.194-22.287 9.211-9.162h10.669V273.856h-14.036v-10.05a193.129 193.129 0 0 0-28.65-2.156c-2.279 0-4.471.135-6.626.214l-.699 1.617v15.274H485.5v29.862h8.562v11.587h-9.751v25.049zm-96.493-44.34l4.973 4.967h17.981l7.606-7.643v-10.338h7.901v17.65h12.249v36.618h17.674v-50.648H433.04v-10.926h10.975l6.429-6.418-3.612-3.607c-21.533 6.711-41.437 17.086-59.014 30.345zm285.525 211.905l-4.727 19.304H638.57v15.022H624.9v25.943l-10.68 10.637h-25.11v-23.045l-13.558-13.535v-33.511l-5.194 18.489h-59.81v21.729h-16.486l-8.562 12.23v27.412l-25.023 18.306v32.937l-28.063-25.569v-67.176l-28.795-26.996-1.997 7.129h-61.083l-4.68-19.292-4.716 19.292H319.03c29.788 73.522 101.761 125.455 186.006 125.455 84.196 0 156.156-51.933 185.92-125.455h-12.934l-4.679-19.306z" fill="#fff"/><g fill="#394145"><path d="M413.625 433.65l4.74-16.921H384.241l-9.063 38.528c-1.017 4.066-1.96 9.462-2.793 16.155-.857 6.7-1.457 12.298-1.812 16.781h-.38c-.061-.036-.123-.085-.196-.128-.722-7.257-2.462-17.363-5.218-30.34l-8.697-40.995h-39.11l-1.506 6.443-7.998 34.032c-3.136 15.225-4.801 25.563-4.972 30.989h-.552c-.416-8.732-1.959-19.713-4.618-32.935l-8.328-38.528H254.15l27.975 100.34h37.199l10.411-42.594c.796-3.282 2.131-10.142 4.03-20.511.601-3.251 1.237-6.816 1.948-10.76h.551l1.801 11.606 1.077 5.678 1.642 8.757 11.587 47.824h37.848l3.943-14.068 17.405-62.051 2.058-7.302zM580.315 440.949l6.798-24.221h-34.135l-9.065 38.528c-1.017 4.066-1.96 9.462-2.793 16.155-.844 6.7-1.432 12.298-1.812 16.781h-.539c-.735-7.263-2.473-17.416-5.242-30.468l-8.697-40.995h-39.11l-9.516 40.475c-2.842 13.817-4.459 23.555-4.863 29.312-.038.587-.087 1.181-.098 1.677h-.564c-.011-.385-.061-.844-.085-1.249-.502-8.543-1.984-19.058-4.52-31.686l-8.328-38.528H422.887l6.76 24.24 1.557 5.579.527 1.905 17.588 63.08 1.555 5.536h37.187l10.423-42.594c.907-3.847 2.598-12.561 5.047-26.102.294-1.653.6-3.355.943-5.169H505l.795 5.169 1.03 6.437 2.694 14.435 11.587 47.824h37.848l19.61-69.872 1.751-6.249zM721.725 416.729l-9.052 38.528c-1.041 4.066-1.984 9.462-2.806 16.155-.857 6.7-1.445 12.298-1.825 16.781h-.538c-.735-7.263-2.475-17.416-5.243-30.468l-8.427-39.733-.27-1.262h-39.096l-9.53 40.475c-2.781 13.511-4.385 23.162-4.839 28.949-.06.735-.098 1.44-.109 2.039h-.576c-.013-.453-.061-.992-.099-1.457-.502-8.494-1.972-18.948-4.507-31.478l-2.609-12.066-5.721-26.462h-34.847l6.749 24.24 8.536 30.566 8.427 30.273 4.263 15.262h37.186l10.435-42.594c.686-2.904 1.837-8.659 3.405-17.118.748-4.09 1.593-8.763 2.573-14.153h.527l1.335 8.506.49 3.099 2.694 14.435 11.612 47.824h37.823l28.16-100.34h-34.121z"/></g><g><path fill="#fff" d="M608.389 725.366H755.85v13.675H608.389zM254.15 725.366h147.472v13.675H254.15z"/><path fill="#394145" d="M492.555 669.501h24.914v42.845h79.529v41.504H413.037v-41.504h79.518z"/></g></svg>