<svg xmlns="http://www.w3.org/2000/svg" viewBox="0 0 1010 1009.994"><path d="M504.997 0C783.903 0 1010 226.096 1010 505.008c0 278.889-226.097 504.986-505.003 504.986C226.103 1009.994 0 783.897 0 505.008 0 226.096 226.103 0 504.997 0z" fill="#394145"/><g fill-rule="evenodd" clip-rule="evenodd"><path d="M504.975 755.843c-138.529 0-250.822-112.33-250.822-250.822 0-138.516 112.293-250.87 250.822-250.87 138.553 0 250.871 112.354 250.871 250.87 0 138.492-112.317 250.822-250.871 250.822zM505 291.801c-117.707 0-213.146 95.476-213.146 213.219 0 117.682 95.439 213.158 213.146 213.158 117.756 0 213.146-95.476 213.146-213.158 0-117.743-95.391-213.219-213.146-213.219z" fill="#fff"/><path d="M659.011 505.743h-23.125c0-.196.025-.453.025-.722 0-25.537-7.374-49.25-19.965-69.338 5.242-7.349 10.436-14.661 14.355-20.088 18.03 25.22 28.735 56.049 28.735 89.425-.001.27-.025.527-.025.723z" fill="#09c"/><path d="M527.635 476.972l91.74-89.4s-60.507 112.427-61.34 113.995c-7.398-19.83-30.4-24.595-30.4-24.595z" fill="#fff"/><path d="M505 374.086c-69.694 0-126.525 54.505-130.543 123.231h28.122v16.915h-50.758v-8.489h-.784c0-.196-.074-.453-.074-.722 0-85.113 68.983-154.06 154.06-154.06 34.54 0 66.337 11.526 91.985 30.731l-17.221 15.935c-21.188-14.82-46.959-23.541-74.787-23.541z" fill="#fc6220"/><path d="M507.278 490.262c22.782 0 41.253 18.482 41.253 41.215 0 22.831-18.471 41.289-41.253 41.289s-41.252-18.459-41.252-41.289c0-22.733 18.47-41.215 41.252-41.215z" fill="#fff"/></g></svg>